<?xml version="1.0" encoding="UTF-8" standalone="no"?><!DOCTYPE svg PUBLIC "-//W3C//DTD SVG 1.1//EN" "http://www.w3.org/Graphics/SVG/1.1/DTD/svg11.dtd"><svg width="100%" height="100%" viewBox="0 0 250 250" version="1.1" xmlns="http://www.w3.org/2000/svg" xmlns:xlink="http://www.w3.org/1999/xlink" xml:space="preserve" xmlns:serif="http://www.serif.com/" style="fill-rule:evenodd;clip-rule:evenodd;stroke-linejoin:round;stroke-miterlimit:2;"><path d="M208.75,0l-167.5,0c-14.125,0 -25.625,11.5 -25.625,25.75l0,169c0,14.25 11.5,25.75 25.625,25.75l141.75,-0l-6.625,-23.125l16,14.875l15.125,14l26.875,23.75l-0,-224.25c-0,-14.25 -11.5,-25.75 -25.625,-25.75Zm-48.25,163.25c0,-0 -4.5,-5.375 -8.25,-10.125c16.375,-4.625 22.625,-14.875 22.625,-14.875c-5.125,3.375 -10,5.75 -14.375,7.375c-6.25,2.625 -12.25,4.375 -18.125,5.375c-12,2.25 -23,1.625 -32.375,-0.125c-7.125,-1.375 -13.25,-3.375 -18.375,-5.375c-2.875,-1.125 -6,-2.5 -9.125,-4.25c-0.375,-0.25 -0.75,-0.375 -1.125,-0.625c-0.25,-0.125 -0.375,-0.25 -0.5,-0.375c-2.25,-1.25 -3.5,-2.125 -3.5,-2.125c0,-0 6,10 21.875,14.75c-3.75,4.75 -8.375,10.375 -8.375,10.375c-27.625,-0.875 -38.125,-19 -38.125,-19c0,-40.25 18,-72.875 18,-72.875c18,-13.5 35.125,-13.125 35.125,-13.125l1.25,1.5c-22.5,6.5 -32.875,16.375 -32.875,16.375c0,-0 2.75,-1.5 7.375,-3.625c13.375,-5.875 24,-7.5 28.375,-7.875c0.75,-0.125 1.375,-0.25 2.125,-0.25c7.625,-1 16.25,-1.25 25.25,-0.25c11.875,1.375 24.625,4.875 37.625,12c0,-0 -9.875,-9.375 -31.125,-15.875l1.75,-2c0,-0 17.125,-0.375 35.125,13.125c0,-0 18,32.625 18,72.875c-0,-0 -10.625,18.125 -38.25,19Zm-58.125,-58.375c-7.125,-0 -12.75,6.25 -12.75,13.875c0,7.625 5.75,13.875 12.75,13.875c7.125,-0 12.75,-6.25 12.75,-13.875c0.125,-7.625 -5.625,-13.875 -12.75,-13.875m45.625,-0c-7.125,-0 -12.75,6.25 -12.75,13.875c0,7.625 5.75,13.875 12.75,13.875c7.125,-0 12.75,-6.25 12.75,-13.875c-0,-7.625 -5.625,-13.875 -12.75,-13.875" style="fill:#fff;fill-rule:nonzero;"/></svg>