<?xml version="1.0" encoding="UTF-8" standalone="no"?><!DOCTYPE svg PUBLIC "-//W3C//DTD SVG 1.1//EN" "http://www.w3.org/Graphics/SVG/1.1/DTD/svg11.dtd"><svg width="100%" height="100%" viewBox="0 0 250 250" version="1.1" xmlns="http://www.w3.org/2000/svg" xmlns:xlink="http://www.w3.org/1999/xlink" xml:space="preserve" xmlns:serif="http://www.serif.com/" style="fill-rule:evenodd;clip-rule:evenodd;stroke-linejoin:round;stroke-miterlimit:2;"><path d="M125,0c68.989,0 125,56.011 125,125c0,68.989 -56.011,125 -125,125c-68.989,0 -125,-56.011 -125,-125c0,-68.989 56.011,-125 125,-125Zm0,25.354c54.996,0 99.646,44.65 99.646,99.646c-0,54.996 -44.65,99.646 -99.646,99.646c-54.996,-0 -99.646,-44.65 -99.646,-99.646c0,-54.996 44.65,-99.646 99.646,-99.646Zm67.195,87.35c-12.271,-21.254 -29.824,-20.619 -48.414,-12.743l-22.963,9.8l-16.051,-27.801c14.353,-7.235 27.42,-8.997 35.698,3.548l23.455,-13.542c-15.009,-24.844 -41.547,-21.334 -68.851,-6.8l-7.386,-12.791l-9.054,5.227l7.374,12.773c-26.627,16.491 -40.735,36.931 -27.992,59.002c11.17,19.347 28.177,18.888 47.018,10.955l17.196,-7.219l18.504,32.051c-15.424,7.618 -29.427,8.963 -39.089,-6.111l-23.455,13.541c16.818,28.106 43.211,25.038 72.337,9.531l9.66,16.733l9.055,-5.228l-9.629,-16.677c30.904,-18.656 46.799,-39.63 32.584,-64.25l0.003,0.001Zm-60.253,16.326l11.609,-4.874c10.629,-4.526 19.243,-5.832 25.108,4.043c5.834,9.837 -1.866,21.369 -18.798,31.87l-17.919,-31.039Zm-28.77,-11.739c-9.867,4.131 -17.371,5.121 -22.114,-3.093c-5.196,-8.999 1.241,-18.468 14.623,-27.064l15.449,26.759l-7.958,3.398Z" style="fill:#fff;"/></svg>