<?xml version="1.0" encoding="UTF-8" standalone="no"?><!DOCTYPE svg PUBLIC "-//W3C//DTD SVG 1.1//EN" "http://www.w3.org/Graphics/SVG/1.1/DTD/svg11.dtd"><svg width="100%" height="100%" viewBox="0 0 250 250" version="1.1" xmlns="http://www.w3.org/2000/svg" xmlns:xlink="http://www.w3.org/1999/xlink" xml:space="preserve" xmlns:serif="http://www.serif.com/" style="fill-rule:evenodd;clip-rule:evenodd;stroke-linejoin:round;stroke-miterlimit:2;"><path d="M125,-0c-33.948,-0 -38.205,0.144 -51.537,0.752c-13.305,0.608 -22.392,2.72 -30.343,5.811c-8.22,3.194 -15.191,7.468 -22.14,14.417c-6.949,6.949 -11.223,13.92 -14.418,22.14c-3.09,7.951 -5.203,17.038 -5.81,30.343c-0.609,13.332 -0.752,17.589 -0.752,51.537c0,33.948 0.143,38.205 0.752,51.537c0.607,13.305 2.72,22.392 5.81,30.343c3.195,8.22 7.469,15.191 14.418,22.14c6.949,6.949 13.92,11.223 22.14,14.418c7.951,3.09 17.038,5.203 30.343,5.81c13.332,0.608 17.589,0.752 51.537,0.752c33.948,0 38.205,-0.144 51.537,-0.752c13.305,-0.607 22.392,-2.72 30.343,-5.81c8.22,-3.195 15.191,-7.469 22.14,-14.418c6.949,-6.949 11.223,-13.92 14.418,-22.14c3.09,-7.951 5.203,-17.038 5.81,-30.343c0.608,-13.332 0.752,-17.589 0.752,-51.537c0,-33.948 -0.144,-38.205 -0.752,-51.537c-0.607,-13.305 -2.72,-22.392 -5.81,-30.343c-3.195,-8.22 -7.469,-15.191 -14.418,-22.14c-6.949,-6.949 -13.92,-11.223 -22.14,-14.417c-7.951,-3.091 -17.038,-5.203 -30.343,-5.811c-13.332,-0.608 -17.589,-0.752 -51.537,-0.752Zm0,22.523c33.376,-0 37.33,0.127 50.511,0.728c12.187,0.557 18.806,2.593 23.21,4.304c5.835,2.268 9.999,4.977 14.373,9.351c4.374,4.374 7.083,8.538 9.351,14.373c1.712,4.404 3.748,11.023 4.304,23.21c0.601,13.181 0.729,17.135 0.729,50.511c-0,33.376 -0.128,37.33 -0.729,50.511c-0.556,12.187 -2.592,18.806 -4.304,23.21c-2.268,5.835 -4.977,9.999 -9.351,14.373c-4.374,4.374 -8.538,7.083 -14.373,9.351c-4.404,1.712 -11.023,3.748 -23.21,4.304c-13.179,0.601 -17.132,0.729 -50.511,0.729c-33.379,-0 -37.331,-0.128 -50.511,-0.729c-12.187,-0.556 -18.806,-2.592 -23.21,-4.304c-5.835,-2.268 -9.999,-4.977 -14.374,-9.351c-4.373,-4.374 -7.083,-8.538 -9.35,-14.373c-1.712,-4.404 -3.748,-11.023 -4.304,-23.21c-0.601,-13.181 -0.729,-17.135 -0.729,-50.511c0,-33.376 0.128,-37.33 0.729,-50.511c0.556,-12.187 2.592,-18.806 4.304,-23.21c2.267,-5.835 4.977,-9.999 9.35,-14.373c4.375,-4.374 8.539,-7.083 14.374,-9.351c4.404,-1.711 11.023,-3.747 23.21,-4.304c13.181,-0.601 17.135,-0.728 50.511,-0.728Zm0,38.288c-35.451,-0 -64.189,28.738 -64.189,64.189c-0,35.451 28.738,64.189 64.189,64.189c35.451,0 64.189,-28.738 64.189,-64.189c0,-35.451 -28.738,-64.189 -64.189,-64.189Zm0,105.856c-23.012,-0 -41.667,-18.655 -41.667,-41.667c0,-23.012 18.655,-41.667 41.667,-41.667c23.012,0 41.667,18.655 41.667,41.667c-0,23.012 -18.655,41.667 -41.667,41.667Zm81.725,-108.392c0,8.284 -6.715,15 -15,15c-8.284,-0 -15,-6.716 -15,-15c0,-8.285 6.716,-15 15,-15c8.285,0 15,6.715 15,15Z" style="fill:#fff;fill-rule:nonzero;"/></svg>