<?xml version="1.0" encoding="UTF-8" standalone="no"?><!DOCTYPE svg PUBLIC "-//W3C//DTD SVG 1.1//EN" "http://www.w3.org/Graphics/SVG/1.1/DTD/svg11.dtd"><svg width="100%" height="100%" viewBox="0 0 1179 200" version="1.1" xmlns="http://www.w3.org/2000/svg" xmlns:xlink="http://www.w3.org/1999/xlink" xml:space="preserve" xmlns:serif="http://www.serif.com/" style="fill-rule:evenodd;clip-rule:evenodd;stroke-linejoin:round;stroke-miterlimit:2;"><path d="M666.434,58.824l-131.056,-0l-51.384,141.176l-50.079,-0l2.004,-5.505l44.221,0l51.384,-141.176l136.914,-0l-2.004,5.505Zm141.797,135.671l50.781,0l0.926,5.505l-50.782,-0l-0.925,-5.505Zm-386.78,-182.73l5.858,-0l-68.512,188.235l-150.237,0l2.004,-5.505l144.379,0l66.508,-182.73Zm-200.968,70.588l5.858,-0l-42.82,117.647l-175.277,-0l2.004,-5.505l169.418,0l40.817,-112.142Zm900.768,70.588l5.858,0l-17.128,47.059l-150.237,-0l2.004,-5.505l144.379,0l15.124,-41.554Zm-330.828,10.62l-35.422,36.439l-220.928,-0l2.004,-5.505l213.331,0l39.401,-40.532l1.614,9.598Zm206.936,-151.796l5.858,-0l-68.512,188.235l-50.079,-0l2.004,-5.505l44.22,0l66.509,-182.73Zm-389.518,123.152l-5.858,-0l19.131,-52.564l5.858,-0l-19.131,52.564Zm-266.92,-76.093l-30.898,-0l-27.695,76.093l-5.859,-0l29.7,-81.598l36.755,-0l-2.003,5.505Zm-200.316,-0l-30.898,-0l-27.695,76.093l-5.858,-0l29.699,-81.598l36.756,-0l-2.004,5.505Zm1032.03,-47.059l5.858,-0l-17.128,47.059l-100.158,-0l-27.695,76.093l-5.858,-0l29.699,-81.598l100.158,-0l15.124,-41.554Zm-1032.68,117.647l-30.897,-0l2.003,-5.505l30.898,-0l-2.004,5.505Zm607.012,-117.647l5.858,-0l-42.82,117.647l-50.079,-0l2.004,-5.505l44.221,-0l40.816,-112.142Zm180.071,-0l6.922,-0l-2.408,6.615l-87.009,89.508l-1.614,-9.598l84.109,-86.525Zm-719.173,52.563l-5.858,0l19.131,-52.563l5.858,-0l-19.131,52.563Zm260.26,-11.009l-2.004,5.505l-30.897,-0l2.003,-5.505l30.898,-0Z" style="fill:#f200ff;"/><path d="M475.757,188.235l-50.079,0l51.384,-141.176l-50.079,-0l17.128,-47.059l300.474,0l-42.82,117.647l-50.079,0l25.692,-70.588l-150.237,-0l-51.384,141.176Zm-206.923,-188.235l150.237,0l-68.512,188.235l-150.237,0l68.512,-188.235Zm567.394,96.201l15.472,92.034l-50.782,0l-7.985,-47.496l-46.17,47.496l-220.927,0l42.82,-117.647l50.079,0l-25.692,70.588l129.625,0l59.968,-61.691l-13.363,-79.485l50.781,0l5.876,34.948l33.971,-34.948l69.841,0l-93.514,96.201Zm-767.709,-96.201l150.237,0l-25.692,70.588l25.039,0l-42.82,117.647l-175.276,0l68.512,-188.235Zm926.46,0l-50.079,0l-68.512,188.235l50.079,0l68.512,-188.235Zm-43.472,188.235l68.512,-188.235l150.237,0l-17.128,47.059l-100.158,-0l-34.256,94.117l100.158,0l-17.128,47.059l-150.237,0Zm-649.722,-141.176l50.079,-0l-34.256,94.117l-50.079,0l34.256,-94.117Zm-183.84,23.529l25.04,0l8.564,-23.529l-50.079,-0l-34.256,94.117l75.118,0l8.564,-23.529l-50.079,0l17.128,-47.059Z" style="fill:#fff;"/></svg>