<?xml version="1.0" encoding="UTF-8" standalone="no"?><!DOCTYPE svg PUBLIC "-//W3C//DTD SVG 1.1//EN" "http://www.w3.org/Graphics/SVG/1.1/DTD/svg11.dtd"><svg width="100%" height="100%" viewBox="0 0 2000 2000" version="1.1" xmlns="http://www.w3.org/2000/svg" xmlns:xlink="http://www.w3.org/1999/xlink" xml:space="preserve" xmlns:serif="http://www.serif.com/" style="fill-rule:evenodd;clip-rule:evenodd;stroke-linejoin:round;stroke-miterlimit:2;"><g id="Grid"><path id="Best" d="M724.797,1475.35c-165.696,165.696 -434.745,165.696 -600.441,-0c-165.697,-165.697 -165.697,-434.746 -0,-600.442c165.696,-165.697 434.745,-165.697 600.441,-0l100.074,100.074l150.111,-150.111l-100.074,-100.074c-240.144,-240.143 -625.014,-248.26 -874.908,-24.379l0,-341.567c346.648,-180.236 784.294,-124.962 1075.06,165.799l100.074,100.074l100.074,-100.074c165.696,-165.696 434.745,-165.696 600.441,0c165.697,165.697 165.697,434.746 0,600.442c-165.696,165.697 -434.745,165.697 -600.441,0l-100.074,-100.074l-150.111,150.111l100.074,100.074c240.144,240.143 625.014,248.26 874.908,24.379l0,341.567c-346.648,180.236 -784.294,124.962 -1075.06,-165.799l-100.074,-100.074l-100.074,100.074Zm-200.147,-400.295c31.21,31.21 100.074,100.074 100.074,100.074c-0,-0 -76.051,76.051 -100.074,100.074c-55.232,55.232 -144.915,55.232 -200.147,-0c-55.232,-55.233 -55.232,-144.916 -0,-200.148c55.232,-55.232 144.915,-55.232 200.147,0Zm950.7,-150.11c-31.21,-31.21 -100.074,-100.074 -100.074,-100.074c0,0 76.051,-76.051 100.074,-100.074c55.232,-55.232 144.915,-55.232 200.147,0c55.232,55.233 55.232,144.916 0,200.148c-55.232,55.232 -144.915,55.232 -200.147,-0Z" style="fill:#070707;"/></g></svg>