<?xml version="1.0" encoding="UTF-8" standalone="no"?><!DOCTYPE svg PUBLIC "-//W3C//DTD SVG 1.1//EN" "http://www.w3.org/Graphics/SVG/1.1/DTD/svg11.dtd"><svg width="100%" height="100%" viewBox="0 0 250 250" version="1.1" xmlns="http://www.w3.org/2000/svg" xmlns:xlink="http://www.w3.org/1999/xlink" xml:space="preserve" xmlns:serif="http://www.serif.com/" style="fill-rule:evenodd;clip-rule:evenodd;stroke-linejoin:round;stroke-miterlimit:2;"><path d="M124.784,-1.36c-65.78,-0 -119.667,51.183 -124.784,116.224l67.113,28.002c5.685,-3.928 12.559,-6.217 19.947,-6.217c0.667,0 1.325,0.019 1.973,0.055l29.849,-43.661l0,-0.613c0,-26.272 21.182,-47.652 47.22,-47.652c26.038,0 47.22,21.38 47.22,47.652c-0,26.272 -21.182,47.661 -47.22,47.661c-0.36,0 -0.712,-0.009 -1.072,-0.018l-42.571,30.642c0.027,0.568 0.045,1.135 0.045,1.694c0,19.731 -15.902,35.777 -35.444,35.777c-17.154,0 -31.506,-12.361 -34.75,-28.723l-48.003,-20.028c14.866,53.04 63.157,91.925 120.477,91.925c69.158,0 125.216,-56.58 125.216,-126.36c-0,-69.789 -56.058,-126.36 -125.216,-126.36Zm-46.315,191.73l-15.38,-6.414c2.721,5.73 7.442,10.523 13.704,13.154c13.532,5.694 29.137,-0.784 34.777,-14.452c2.73,-6.613 2.748,-13.911 0.045,-20.542c-2.703,-6.631 -7.811,-11.802 -14.361,-14.559c-6.514,-2.73 -13.488,-2.631 -19.614,-0.298l15.893,6.631c9.983,4.199 14.704,15.767 10.541,25.84c-4.153,10.073 -15.623,14.839 -25.605,10.64Zm119.098,-97.939c0,-17.506 -14.118,-31.759 -31.461,-31.759c-17.353,-0 -31.471,14.253 -31.471,31.759c-0,17.506 14.118,31.75 31.471,31.75c17.343,0 31.461,-14.244 31.461,-31.75Zm-55.049,-0.054c0,-13.172 10.587,-23.849 23.633,-23.849c13.055,0 23.641,10.677 23.641,23.849c0,13.172 -10.586,23.848 -23.641,23.848c-13.046,0 -23.633,-10.676 -23.633,-23.848Z" style="fill:#fff;fill-rule:nonzero;"/></svg>