<?xml version="1.0" encoding="UTF-8" standalone="no"?><!DOCTYPE svg PUBLIC "-//W3C//DTD SVG 1.1//EN" "http://www.w3.org/Graphics/SVG/1.1/DTD/svg11.dtd"><svg width="100%" height="100%" viewBox="0 0 250 250" version="1.1" xmlns="http://www.w3.org/2000/svg" xmlns:xlink="http://www.w3.org/1999/xlink" xml:space="preserve" xmlns:serif="http://www.serif.com/" style="fill-rule:evenodd;clip-rule:evenodd;stroke-linejoin:round;stroke-miterlimit:2;"><path d="M21.763,-0l-16.304,43.479l0,173.896l59.754,0l0,32.625l32.624,0l32.591,-32.625l48.9,0l65.213,-65.19l-0,-152.185l-222.778,-0Zm21.722,21.726l179.325,-0l0,119.567l-38.047,38.049l-59.763,0l-32.582,32.581l0,-32.581l-48.933,0l-0,-157.616Zm59.778,108.712l21.737,0l-0,-65.21l-21.737,0l0,65.21Zm59.768,0l21.732,0l0,-65.21l-21.732,0l-0,65.21Z" style="fill:#fff;fill-rule:nonzero;"/></svg>